<svg version="1.1" id="Layer_1" xmlns="http://www.w3.org/2000/svg" x="0" y="0" width="517.303" height="96.758" viewBox="491.349 701.621 517.303 96.758" xml:space="preserve"><path fill="#FFF" d="M672.77 741.181c-1.764-1.764-4.031-3.275-6.551-4.283s-5.291-1.512-8.063-1.512c-3.275 0-6.299.504-8.819 1.764-2.771 1.26-5.039 2.771-7.055 4.787s-3.779 4.536-4.787 7.308c-1.26 2.771-1.765 5.795-1.765 9.071 0 3.275.505 6.299 1.765 9.07 1.26 2.772 2.771 5.292 4.787 7.308s4.535 3.779 7.559 4.787c2.772 1.26 6.048 1.765 9.323 1.765 3.528 0 6.804-.505 9.575-1.765s5.543-3.023 7.812-5.039l.504-.504-5.292-7.56-.756.504c-1.764 1.512-3.527 2.772-5.291 3.528-2.016.756-4.031 1.26-6.3 1.26-3.527 0-6.299-1.008-8.566-2.772-2.017-1.764-3.528-4.031-4.284-6.803h31.245l.252-.504c.252-.504.252-1.512.504-2.52s.252-2.269.252-3.276c0-2.771-.504-5.543-1.512-8.062-1.261-2.52-2.773-4.789-4.537-6.552zm-25.954 12.346c.756-2.52 2.016-4.535 3.78-6.047 2.016-1.764 4.535-2.52 7.307-2.52 2.772 0 5.04.756 7.056 2.52 1.764 1.512 2.771 3.527 3.023 6.299h-21.166v-.252zm58.458.504l-4.031-1.512c-2.016-.756-3.275-1.512-4.032-2.016-.756-.504-1.008-1.26-1.008-2.016 0-1.008.504-1.764 1.26-2.268 1.009-.504 2.269-.756 3.78-.756 1.764 0 3.527.252 5.039 1.008 1.513.756 3.024 1.764 4.284 3.023l.504.506 5.795-6.804-.504-.504c-1.764-2.268-4.031-4.031-6.551-5.039-2.521-1.26-5.544-1.764-8.567-1.764-2.016 0-4.284.252-6.048.756-2.016.504-3.527 1.512-5.039 2.52s-2.52 2.52-3.275 4.031c-.756 1.513-1.26 3.528-1.26 5.544 0 1.764.252 3.275.756 4.535s1.26 2.52 2.268 3.527c1.008 1.009 2.268 2.017 3.527 2.772s3.023 1.512 4.787 2.268l4.284 1.764c1.764.756 3.023 1.26 4.031 2.016.756.504 1.26 1.26 1.26 2.52 0 1.261-.504 2.269-1.512 2.772-1.26.756-2.52 1.008-4.283 1.008-2.268 0-4.284-.504-6.048-1.512s-3.527-2.521-5.291-4.284l-.504-.504-6.048 6.804.504.504c2.017 2.52 4.284 4.535 7.308 6.047s6.551 2.268 10.331 2.268c2.268 0 4.283-.252 6.299-.756 2.017-.504 3.78-1.512 5.292-2.52 1.512-1.26 2.771-2.52 3.527-4.283 1.008-1.764 1.26-3.779 1.26-6.048 0-3.275-1.008-6.047-3.275-8.062-2.016-2.016-4.787-4.033-8.82-5.545zm45.86 8.316c0 2.771-.756 4.787-2.52 6.552-1.764 1.512-3.527 2.268-6.048 2.268-2.52 0-4.535-.756-6.299-2.268-1.764-1.513-2.52-3.78-2.52-6.552v-25.953h-10.583v25.197c0 3.023.504 5.543 1.512 8.063 1.008 2.268 2.268 4.535 4.031 6.047 1.765 1.764 3.78 3.023 6.048 4.031s4.787 1.261 7.559 1.261c2.772 0 5.292-.505 7.56-1.261 2.268-1.008 4.535-2.268 6.048-4.031 1.764-1.764 3.023-3.779 4.031-6.047 1.008-2.269 1.512-5.04 1.512-8.063v-25.197h-10.583v25.953h.252zm79.624-21.922c-1.26-1.512-3.023-2.771-5.292-3.527-2.016-.756-4.283-1.26-7.055-1.26-3.276 0-6.3.756-8.819 2.016-2.268 1.008-4.031 2.52-5.543 4.283-1.26-1.764-2.772-3.275-4.788-4.283-2.268-1.26-5.039-2.016-8.063-2.016-2.771 0-5.039.504-7.307 1.512-1.512.756-3.023 1.512-4.283 2.52v-3.023h-9.827v43.844h10.583v-26.206c0-2.771.756-4.787 2.268-6.551s3.527-2.52 6.047-2.52 4.536.756 5.796 2.52c1.512 1.764 2.268 3.779 2.268 6.551v25.953h10.583v-26.457c0-2.52.756-4.535 2.268-6.047s3.527-2.52 6.047-2.52c2.521 0 4.536.756 5.796 2.52 1.512 1.764 2.016 3.779 2.016 6.551v25.954h10.583v-27.214c0-2.52-.252-4.787-1.008-7.055-.003-2.27-1.01-4.033-2.27-5.545zm47.623.756c-1.764-1.764-4.031-3.275-6.552-4.283-2.52-1.008-5.291-1.512-8.063-1.512-3.275 0-6.299.504-8.818 1.764-2.771 1.26-5.04 2.771-7.056 4.787s-3.779 4.536-4.787 7.308c-1.26 2.771-1.764 5.795-1.764 9.071 0 3.275.504 6.299 1.764 9.07 1.26 2.772 2.771 5.292 4.787 7.308s4.536 3.779 7.56 4.787c2.771 1.26 6.047 1.765 9.323 1.765 3.527 0 6.803-.505 9.575-1.765 2.771-1.26 5.543-3.023 7.811-5.039l.504-.504-5.291-7.56-.756.504c-1.764 1.512-3.527 2.772-5.292 3.528-2.016.756-4.031 1.26-6.299 1.26-3.528 0-6.3-1.008-8.567-2.772-2.016-1.764-3.527-4.031-4.283-6.803h31.244l.252-.504c.252-.504.252-1.512.504-2.52s.252-2.269.252-3.276c0-2.771-.504-5.543-1.512-8.062-1.513-2.52-2.772-4.789-4.536-6.552zm-26.205 12.346c.756-2.52 2.016-4.535 3.779-6.047 2.016-1.764 4.535-2.52 7.307-2.52 2.772 0 5.04.756 7.056 2.52 1.764 1.512 2.771 3.527 3.023 6.299h-21.165v-.252zm72.064-13.102c-1.512-1.26-3.024-2.52-5.04-3.275-2.52-1.008-5.291-1.764-8.315-1.764-3.023 0-6.047.504-8.566 1.764s-4.787 2.771-6.804 4.787c-2.016 2.016-3.527 4.536-4.535 7.308s-1.512 5.795-1.512 9.071c0 3.275.504 6.299 1.512 9.07 1.008 2.772 2.52 5.292 4.535 7.308s4.284 3.779 6.804 4.787c2.52 1.26 5.543 1.765 8.566 1.765 3.276 0 6.048-.757 8.819-1.765 2.016-1.008 3.78-2.268 5.04-3.527v4.535h10.078v-64.001H924.24v23.937zm-7.559 5.544c1.512.504 2.771 1.26 3.779 2.268s2.017 2.52 2.772 4.031 1.008 3.527 1.008 5.796c0 2.268-.252 4.283-1.008 6.047-.756 1.512-1.513 3.023-2.772 4.032-1.008 1.008-2.52 1.764-3.779 2.268-3.023 1.008-6.552 1.008-9.071-.252-1.512-.756-2.771-1.513-3.779-2.772-1.008-1.008-2.016-2.52-2.52-4.031s-1.008-3.275-1.008-5.291c0-2.017.252-3.78 1.008-5.292.504-1.512 1.512-3.023 2.52-4.031s2.268-2.016 3.779-2.52 3.023-1.009 4.787-1.009c1.512 0 3.024.252 4.284.756zm33.26-31.245c-2.016 0-3.527.756-5.04 2.016-1.26 1.26-2.016 3.023-2.016 4.788 0 1.764.756 3.527 2.016 4.787 1.261 1.26 3.024 2.016 5.04 2.016 1.764 0 3.527-.756 4.787-2.016 1.512-1.26 2.016-3.023 2.016-4.787 0-1.765-.756-3.528-2.016-4.788-1.259-1.512-2.771-2.016-4.787-2.016zm-5.292 21.67h10.583v43.843h-10.583zm53.923 0v4.535c-1.512-1.512-3.023-2.771-5.039-3.527-2.521-1.26-5.544-1.764-8.819-1.764-3.024 0-6.048.504-8.567 1.764s-4.787 2.771-6.804 4.787c-2.016 2.016-3.527 4.536-4.535 7.308-2.771 7.307-1.26 14.866 0 18.142 1.008 2.772 2.52 5.292 4.535 7.308 2.017 2.016 4.284 3.779 6.804 4.787 2.52 1.26 5.543 1.765 8.567 1.765 3.275 0 6.047-.757 8.819-1.765 2.016-1.008 3.779-2.268 5.039-3.527v4.535h10.079v-43.843h-10.079v-.505zm-.756 21.921v.504c0 2.016-.252 4.031-1.008 5.543s-1.512 3.023-2.771 4.032c-1.008 1.008-2.521 1.764-3.78 2.268-3.023 1.008-6.551 1.008-9.071-.252-1.512-.756-2.771-1.512-3.779-2.772-1.008-1.008-2.016-2.52-2.52-4.031-.756-1.764-1.764-6.299 0-10.583.504-1.512 1.512-3.023 2.52-4.031s2.268-2.016 3.779-2.771c2.772-1.261 6.048-1.261 9.071-.252 1.512.504 2.772 1.26 3.78 2.268s2.016 2.52 2.771 4.031 1.008 3.275 1.008 5.544v.502zm-363.094 21.921l-14.614-25.701c3.023-1.512 6.3-3.527 8.063-6.299 2.016-3.023 3.023-6.3 3.023-10.331 0-2.771-.504-5.039-1.512-7.308-1.008-2.268-2.268-4.031-4.032-5.795-1.764-1.512-4.031-2.771-6.299-3.779-2.52-.757-5.291-1.261-8.315-1.261h-22.678v60.474h10.583v-23.938h9.827l13.858 23.938h12.096zm-35.781-50.646h11.843c3.024 0 5.292.756 7.056 2.268 1.512 1.513 2.268 3.528 2.268 6.3 0 2.52-.756 4.535-2.268 6.047-1.512 1.513-4.031 2.269-7.056 2.269h-11.843V729.59z"/><path fill="#1178ed" d="M491.349 721.527v76.852h70.049v-96.758h-70.049v11.339h58.71v74.08h-47.371v-54.174h19.906c4.787 0 8.567 3.779 8.567 8.566 0 4.788-3.78 8.567-8.315 8.567h-10.583v9.323l14.866 18.897h14.362l-13.858-17.638h.252c8.567-2.268 14.615-10.079 14.615-19.15 0-10.835-8.819-19.905-19.906-19.905h-31.245v.001z"/></svg>